<?xml version="1.0" encoding="utf-8"?>
<!-- Generator: Adobe Illustrator 16.0.3, SVG Export Plug-In . SVG Version: 6.00 Build 0)  -->
<!DOCTYPE svg PUBLIC "-//W3C//DTD SVG 1.1//EN" "http://www.w3.org/Graphics/SVG/1.1/DTD/svg11.dtd">
<svg version="1.1" id="Capa_1" xmlns="http://www.w3.org/2000/svg" xmlns:xlink="http://www.w3.org/1999/xlink" x="0px" y="0px"
	 width="500px" height="500px" viewBox="0 0 500 500" enable-background="new 0 0 500 500" xml:space="preserve">
<g>
	<path fill-rule="evenodd" clip-rule="evenodd" fill="#111111" d="M225.53,301.496c14.418-11.625,36.513-9.86,48.171-0.957
		c2.447,1.868,2.554-0.071,3.219-1.362c10.179-19.774,25.548-34.03,46.733-40.709c32.851-10.358,61.815-3.067,85.987,21.766
		c2.367,2.433,4.613,3.604,8.06,3.437c8.858-0.432,17.741-0.621,26.604-0.027c7.31,0.49,10.818,4.261,10.864,11.535
		c0.037,5.873-0.127,11.749-0.011,17.621c0.088,4.457-1.743,7.708-5.532,9.877c-4.979,2.85-9.901,5.83-15.059,8.32
		c-2.208,1.066-2.838,2.215-2.808,4.496c0.205,15.268-3.733,29.521-12.021,42.25c-18.25,28.025-44.12,41.146-77.735,39.015
		c-32.638-2.067-65.983-27.576-72.99-67.08c-1.426-8.041-1.71-16.173-0.354-24.241c0.62-3.687-0.558-6.225-3.23-8.526
		c-7.711-6.643-22.705-6.601-30.261,0.172c-2.249,2.016-3.37,4.229-2.968,7.551c3.531,29.186-5.817,53.668-27.765,73.111
		c-26.791,23.733-68.015,26.139-98.062,5.607c-23.455-16.026-36.088-38.475-36.853-67.132c-0.078-2.895-0.775-4.329-3.559-5.422
		c-5.353-2.103-10.09-5.453-14.987-8.447c-3.443-2.104-5.245-5.158-5.166-9.333c0.116-6.121-0.04-12.249,0.103-18.37
		c0.167-7.156,3.553-10.644,10.827-10.998c8.363-0.407,16.749-0.674,25.104-0.041c4.101,0.31,6.83-1.086,9.721-4.075
		c19.496-20.149,43.438-28.4,71.091-24.459c28.518,4.065,49.088,19.675,62.079,45.337C224.9,300.738,225.171,301.013,225.53,301.496
		z M349.142,398.404c10.938-0.049,21.432-2.346,30.899-7.77c20.009-11.464,31.476-28.78,33.204-51.906
		c1.036-13.863-2.804-26.671-10.565-38.262c-1.196-1.786-1.973-2.406-3.822-0.359c-4.267,4.721-8.833,9.177-13.367,13.649
		c-20.007,19.73-40.043,39.431-60.076,59.136c-2.932,2.883-6.455,2.09-7.928-1.829c-2.33-6.198,0.94-10.516,5.036-14.494
		c21.946-21.318,43.911-42.618,65.851-63.945c3.874-3.767,3.831-3.812-0.56-7.218c-29.994-23.264-74.931-13.667-93.098,20.106
		C270.983,349.632,304.35,398.479,349.142,398.404z M214.168,341.98c0.176-19.401-4.058-31.824-11.931-43.074
		c-3.458-4.941-7.59-9.26-12.306-13.023c-1.603-1.279-2.773-1.768-4.583,0.203c-3.876,4.224-8.187,8.048-12.297,12.059
		c-24.133,23.551-48.241,47.125-72.432,70.616c-1.357,1.317-1.177,2.171-0.343,3.453c2.826,4.35,6.481,7.938,10.48,11.152
		c20.493,16.474,43.222,19.879,66.992,9.071C201.334,381.713,212.806,362.068,214.168,341.98z M92.533,357.745
		c27.389-26.456,54.195-52.377,81.053-78.245c2.166-2.086,0.563-2.631-1.023-3.178c-6.646-2.295-13.516-3.666-20.527-3.593
		c-25.693,0.267-45.165,11.837-57.436,34.12C85.81,322.813,85.751,339.938,92.533,357.745z M439.863,305.479
		c0.065-4.349-3.369-8.05-7.529-8.114c-4.293-0.066-8.113,3.694-8.161,8.031c-0.05,4.541,3.313,8.23,7.44,8.162
		C435.778,313.488,439.803,309.548,439.863,305.479z M76.656,305.369c-0.104-4.566-3.711-8.013-8.248-7.882
		c-4.318,0.124-7.564,3.769-7.375,8.277c0.173,4.118,3.783,7.884,7.571,7.895C72.728,313.671,76.752,309.527,76.656,305.369z"/>
	<path fill-rule="evenodd" clip-rule="evenodd" fill="#111111" d="M356.64,188.15c0.583,0.43-0.091,0.741-0.105,1.114
		c-1.524-0.187-2.543,0.746-3.655,1.565c-11.28,8.307-23.375,15.144-36.366,20.438c-11.054,4.505-22.238,8.656-33.569,12.598
		c1.768,2.498,5.425,1.511,6.759,4.285c-20.74,5.915-41.93,8.96-63.452,9.68c-26.249,0.879-52.171-1.485-77.464-8.867
		c-25.593-7.469-48.27-19.881-65.232-40.979c-21.901-27.238-25.509-57.326-12.843-89.629c0.213-0.543,0.543-1.039,1.274-2.413
		c0.591,8.171,2.125,15.228,4.616,22.1c7.861,21.691,22.723,37.287,42.356,48.655c20.64,11.951,43.253,17.135,66.804,18.707
		c41.76,2.787,82.401-3.466,122.324-15.401c2.944-0.88,5.714-2.438,10.06-2.727c-6.083,4.578-11.698,7.826-17.57,10.622
		c-20.285,9.658-41.806,15.335-63.755,19.583c-18.303,3.543-36.801,5.277-55.423,5.848c-1.335,0.041-3.598-0.696-3.792,1.119
		c-0.18,1.691,2.164,1.634,3.49,2.096c12.905,4.492,26.363,5.435,39.85,5.801c38.708,1.05,76.386-4.921,113.096-17.132
		c7.228-2.403,14.071-5.747,20.951-8.982C355.541,186.869,356.091,187.509,356.64,188.15z"/>
	<path fill-rule="evenodd" clip-rule="evenodd" fill="#111111" d="M238.621,161.862c-34.355,2.769-66.462-3.352-94.431-24.695
		c-14.366-10.962-26.203-24.192-33.162-41.221c-0.92-2.251-2.906-5.094-0.903-6.864c1.802-1.593,3.983,1.148,5.852,2.211
		c12.354,7.033,25.487,11.925,39.453,14.564c1.33,0.252,2.706,0.265,4.56,0.435c-1.821-4.484-4.847-8.026-5.947-13.137
		c2.947,1.731,5.371,3.151,7.791,4.578c21.205,12.505,44.495,17.996,68.702,20.283c18.305,1.729,36.69,1.141,55.037,1.696
		c15.621,0.472,31.13,1.968,46.194,6.495c1.511,0.454,2.99,1.017,4.484,1.529c-0.316,1.793-1.763,1.517-2.945,1.506
		c-12.851-0.113-25.653,0.646-38.399,2.251c-5.804,0.731-11.578,1.698-17.365,2.558c0.018,0.32,0.037,0.64,0.056,0.959
		c7.413,0.419,14.826,0.837,22.77,1.286c-29.809,7.301-59.511,10.959-90.441,10.194c5.635,6.292,14.578,10.991,24.525,13.411
		C235.954,160.268,237.756,160.098,238.621,161.862z"/>
	<path fill-rule="evenodd" clip-rule="evenodd" fill="#111111" d="M192.039,91.296c11.882-4.592,23.974-7.136,36.147-9.089
		c30.058-4.822,59.978-3.923,89.538,3.612c19.074,4.863,36.494,13.266,52.529,26.053c-2.942-0.119-4.754-1.406-6.721-2.105
		c-20.739-7.37-42.157-9.817-64.066-9.414c-19.973,0.367-39.943,1.914-59.93,0.458c-14.713-1.072-29.248-3.225-43.407-7.516
		C194.841,92.904,193.453,92.722,192.039,91.296z"/>
	<path fill-rule="evenodd" clip-rule="evenodd" fill="#111111" d="M410.689,205.637c-0.527-5.368-2.974-10.121-4.97-14.987
		c-3.658-8.917-8.804-17.008-14.429-24.802c-0.744-1.033-2.456-2.116-1.402-3.33c1.036-1.193,2.547,0.346,3.56,0.911
		c12.383,6.908,22.661,16.191,30.796,27.824c0.264,0.378,0.523,0.76,1.072,1.557c0.76-5.385-1.084-9.881-2.545-14.355
		c-4.931-15.098-13.179-28.393-22.697-40.973c-0.88-1.163-2.182-2.09-2.342-3.717c0.16-0.137,0.303-0.288,0.43-0.456
		c12.31,6.84,21.659,16.651,28.619,28.781c8.211,14.31,12.702,29.685,13.104,46.245c0.396,16.332,0.531,32.66,0.108,48.991
		c-2.471-5.678-4.844-11.402-7.433-17.026c-5.605-12.176-13.408-22.988-21.219-33.788c-0.187-0.362,0.141-1.185-0.79-0.876
		L410.689,205.637z"/>
	<path fill-rule="evenodd" clip-rule="evenodd" fill="#000000" d="M238.621,161.862c-0.865-1.764-2.667-1.594-4.171-1.96
		c-9.947-2.42-18.891-7.119-24.525-13.411c30.93,0.766,60.633-2.893,90.441-10.194c-7.943-0.449-15.356-0.867-22.77-1.286
		c-0.019-0.319-0.038-0.639-0.056-0.959c5.787-0.86,11.562-1.826,17.365-2.558c12.746-1.605,25.549-2.364,38.399-2.251
		c1.183,0.01,2.629,0.287,2.945-1.506c7.144,1.313,13.896,3.726,20.365,7.729c-3.682,0.559-7.374,1.058-11.043,1.687
		c-19.253,3.303-37.635,9.84-56.34,15.183C272.658,157.069,255.863,160.663,238.621,161.862z"/>
	<path fill-rule="evenodd" clip-rule="evenodd" fill="#000000" d="M411.342,206.512c7.811,10.8,15.613,21.612,21.219,33.788
		c2.589,5.624,4.962,11.349,7.433,17.026c0.747,3.967,0.139,7.961,0.245,11.94c0.04,1.468-0.786,1.942-2.125,1.926
		c-3.246-0.041-6.493-0.063-9.739-0.059c-1.214,0.002-1.686-0.716-2.126-1.72c-0.953-2.174-2.025-4.413-3.856-5.902
		c-5.045-4.104-6.773-9.608-8.174-15.727c-4.528-19.788-15.154-36.471-27.7-52.068c-1.551-1.927-3.104-3.851-5.357-6.644
		c5.221,1.163,9.031,3.045,12.715,5.136c4.785,2.716,9.285,5.863,13.468,9.462c0.968,0.832,1.662,2.294,3.347,1.966
		c0,0-0.138-0.001-0.138,0C410.422,206.282,410.719,206.544,411.342,206.512z"/>
	<path fill-rule="evenodd" clip-rule="evenodd" fill="#000000" d="M79.85,233.467c3.561-7.217,3.486-7.121,9.403-2.551
		c1.559,1.203,1.608,2.153,1.022,3.729c-2.495,6.703-3.907,13.652-4.395,20.777c-0.106,1.557-0.939,2.547-1.933,3.475
		c-3.483,3.254-6.788,6.647-8.813,11.049c-0.62,1.349-1.61,1.735-2.985,1.686c-2.994-0.109-5.99-0.194-8.986-0.217
		c-1.397-0.009-2.051-0.531-2.012-1.991c0.492-18.305-0.979-36.739,3.65-54.766c0.403-1.567,0.966-3.096,1.525-4.616
		c0.156-0.424,0.564-0.754,0.974-1.275C72.031,216.614,76.55,224.334,79.85,233.467z"/>
	<path fill-rule="evenodd" clip-rule="evenodd" fill="#000000" d="M289.702,228.149c-1.334-2.774-4.991-1.788-6.759-4.285
		c11.331-3.942,22.516-8.093,33.569-12.598c12.991-5.294,25.086-12.13,36.366-20.438c1.112-0.819,2.131-1.752,3.655-1.565
		c-4.054,6.547-9.882,11.371-15.923,15.875C325.345,216.521,307.914,223.226,289.702,228.149z"/>
	<path fill-rule="evenodd" clip-rule="evenodd" fill="#000000" d="M107.653,137.566c5.841,2.083,11.105,3.949,16.359,5.844
		c1.187,0.428,2.165,1.181,3.048,2.101c6.638,6.906,12.459,14.591,20.37,20.842C134.038,165.068,112.353,150.082,107.653,137.566z"
		/>
	<path fill-rule="evenodd" clip-rule="evenodd" fill="#000000" d="M356.64,188.15c-0.549-0.641-1.099-1.281-1.648-1.922
		c1.913-1.015,3.826-2.031,6.648-3.53c-1.345,2.599-2.246,4.207-3.935,5.264c-0.382-0.319-0.775-1.015-1.109,0.037L356.64,188.15z"
		/>
	<path fill-rule="evenodd" clip-rule="evenodd" fill="#111111" d="M397.732,133.766c-0.179-0.135-0.356-0.27-0.535-0.404
		c0.321-0.017,0.643-0.032,0.965-0.05C398.035,133.478,397.893,133.629,397.732,133.766z"/>
	<path fill-rule="evenodd" clip-rule="evenodd" fill="#111111" d="M356.596,187.999c0.334-1.052,0.728-0.356,1.109-0.037
		C357.349,188.396,356.979,188.408,356.596,187.999z"/>
</g>
</svg>